<svg width="1200" height="630" viewBox="0 0 1200 630" fill="none" xmlns="http://www.w3.org/2000/svg">
  <rect width="1200" height="630" fill="#F7F4EC"/>
  <rect x="36" y="36" width="1128" height="558" rx="28" fill="url(#panel)"/>
  <circle cx="1010" cy="146" r="138" fill="#D7A441" fill-opacity="0.16"/>
  <circle cx="160" cy="520" r="180" fill="#8F3C2F" fill-opacity="0.12"/>
  <rect x="88" y="88" width="148" height="148" rx="28" fill="#8F3C2F"/>
  <circle cx="162" cy="162" r="30" fill="#F7F4EC"/>
  <path d="M188 162C188 147.641 176.359 136 162 136C147.641 136 136 147.641 136 162C136 176.359 147.641 188 162 188C176.359 188 188 176.359 188 162Z" stroke="#D7A441" stroke-width="10"/>
  <text x="88" y="302" fill="#18212B" font-family="Georgia, 'Times New Roman', serif" font-size="64" font-weight="700">Pine Tar</text>
  <text x="88" y="364" fill="#18212B" font-family="Georgia, 'Times New Roman', serif" font-size="64" font-weight="700">Sports Fund</text>
  <text x="88" y="438" fill="#5B6470" font-family="Avenir, Montserrat, sans-serif" font-size="28">
    Structured decks for investor raises, sponsor stories,
  </text>
  <text x="88" y="478" fill="#5B6470" font-family="Avenir, Montserrat, sans-serif" font-size="28">
    lender packages, and municipality partnerships.
  </text>
  <rect x="88" y="520" width="300" height="52" rx="26" fill="#18212B"/>
  <text x="122" y="553" fill="#F7F4EC" font-family="Avenir, Montserrat, sans-serif" font-size="24" font-weight="700">
    pinetarsportsfund.com
  </text>
  <defs>
    <linearGradient id="panel" x1="64" y1="72" x2="1120" y2="594" gradientUnits="userSpaceOnUse">
      <stop stop-color="#FFFDF8"/>
      <stop offset="1" stop-color="#F1E6D5"/>
    </linearGradient>
  </defs>
</svg>
